# xmcd CD database file
#
# Track frame offsets:
#	182
#	19900
#	56697
#	86160
#	106720
#	128300
#	160730
#	183410
#	199670
#
# Disc length: 2949 seconds
#
# Revision: 0
# Processed by: cddbd v1.5.2PL0 Copyright (c) Steve Scherf et al.
# Submitted via: CDex 1.51
#
DISCID=690b8309
DTITLE=Thomas Silvestri - Flying Ferry
DYEAR=1900
DGENRE=Jazz
TTITLE0=Spirit of a Shower
TTITLE1=Los Colores del Febrero
TTITLE2=Flying Ferry
TTITLE3=Tatatuck
TTITLE4=Night Lights
TTITLE5=Clouds
TTITLE6=Dream of a Flight
TTITLE7=Flirts and Flowers
TTITLE8=Dancing Scorpion
EXTD=
EXTT0=
EXTT1=
EXTT2=
EXTT3=
EXTT4=
EXTT5=
EXTT6=
EXTT7=
EXTT8=
PLAYORDER=
